<svg width="88" height="24" viewBox="0 0 88 24" fill="none" xmlns="http://www.w3.org/2000/svg">
<path fill-rule="evenodd" clip-rule="evenodd" d="M57.9976 10.7224L57.9979 8.90174H56.5735C56.5064 8.90174 56.4475 8.91035 56.398 8.92705C56.3522 8.94272 56.3137 8.96572 56.284 8.99578C56.2538 9.02623 56.2301 9.06605 56.214 9.11474C56.1971 9.16561 56.1882 9.22702 56.1882 9.2987V13.1596C56.1882 13.4082 56.1572 13.6262 56.0932 13.8145C56.028 14.0067 55.9282 14.1678 55.7917 14.2986C55.6563 14.4284 55.4878 14.5249 55.2844 14.5886C55.0847 14.6512 54.8518 14.6822 54.5839 14.6822H47.477V14.4797C47.477 13.5053 47.3627 12.6683 47.1527 11.9577C46.9315 11.2086 46.604 10.5999 46.1928 10.1183C45.7586 9.6101 45.2279 9.24089 44.6272 8.9954C43.9876 8.73397 43.2681 8.6127 42.5008 8.6127H39.812C39.4592 8.6127 39.1668 8.65265 38.9274 8.72729C38.6925 8.80039 38.5078 8.90701 38.3662 9.04177C38.2266 9.17448 38.1265 9.3375 38.0592 9.52493C37.9908 9.71596 37.9561 9.93268 37.9484 10.1691L37.9369 10.52H42.9614C43.5561 10.52 44.0367 10.6423 44.4232 10.8535C44.8114 11.0656 45.1035 11.3667 45.3204 11.7235C45.5312 12.0703 45.6686 12.4686 45.753 12.8867C45.8368 13.3024 45.8686 13.7379 45.8686 14.1621V14.6822H39.6548C39.4115 14.6822 39.2188 14.6504 39.0657 14.593C38.907 14.5335 38.7915 14.4464 38.7071 14.3381C38.624 14.2314 38.5759 14.11 38.5497 13.9779C38.5245 13.8514 38.5194 13.7146 38.5219 13.5717L38.5485 12.3476H37.6635L37.6259 13.5354L37.6065 14.1239C37.6007 14.2839 37.5954 14.4433 37.5875 14.6033C37.5755 14.8286 37.5597 15.125 37.6085 15.4181C37.6562 15.7045 37.7662 15.991 38.0037 16.2086C38.1403 16.3336 38.2699 16.4286 38.4044 16.5005C38.5382 16.5718 38.6789 16.6211 38.8389 16.6551C39.0077 16.6911 39.199 16.7108 39.4254 16.7214C39.6508 16.7321 39.918 16.7338 40.2353 16.7338H45.8686V16.9362C45.8686 17.4791 45.7756 17.9647 45.5899 18.3876C45.4043 18.8103 45.1263 19.1696 44.7563 19.4606C44.3966 19.7432 43.9511 19.9594 43.4198 20.1038C42.9006 20.245 42.3 20.3178 41.618 20.3178H36.28V21.3302C36.28 21.4965 36.3083 21.6415 36.3602 21.7656C36.4142 21.8942 36.4937 22.0011 36.5936 22.0863C36.702 22.1788 36.8363 22.2486 36.9898 22.2957C37.1501 22.3449 37.3316 22.3694 37.5271 22.3694H41.466C42.3505 22.3694 43.1708 22.2421 43.9025 21.9934C44.629 21.7465 45.2691 21.3798 45.7987 20.8995C46.3134 20.4328 46.725 19.8575 47.0116 19.1792C47.2884 18.5243 47.4491 17.773 47.4739 16.9304L47.4797 16.7335H53.9286C54.062 16.7335 54.2537 16.7335 54.4807 16.7156C54.7083 16.6977 54.9729 16.6617 55.2532 16.5903C55.5324 16.5191 55.8298 16.4122 56.1258 16.2523C56.4215 16.0925 56.7164 15.8789 56.9911 15.5944C57.4996 15.0676 57.7528 14.3981 57.8783 13.6435C58.0054 12.8801 58.0023 12.0277 57.999 11.1471L57.9978 10.7222L57.9976 10.7224ZM15.0502 6.76267V5H13.276C13.1644 5 13.0683 5.01362 12.9881 5.04059C12.9115 5.06629 12.849 5.10431 12.801 5.15429C12.7515 5.2058 12.7139 5.27312 12.6883 5.35546C12.6614 5.44256 12.6478 5.54636 12.6478 5.66661V6.76267H15.0501H15.0502ZM56.3659 20.9247V19.162H50.1425C50.0309 19.162 49.9349 19.1756 49.8546 19.2026C49.778 19.2283 49.7157 19.2663 49.6675 19.3163C49.618 19.3678 49.5803 19.435 49.5548 19.5175C49.5279 19.6044 49.5143 19.7084 49.5143 19.8286V20.9247H56.3657H56.3659ZM54.2154 24V22.2373H52.4413C52.3296 22.2373 52.2335 22.2509 52.1534 22.2779C52.0768 22.3036 52.0144 22.3416 51.9663 22.3916C51.9167 22.4431 51.8791 22.5103 51.8536 22.5928C51.8265 22.6798 51.8131 22.7837 51.8131 22.9039V24H54.2153H54.2154ZM3.53196 8.6127C3.17916 8.6127 2.88674 8.65265 2.64732 8.72729C2.41239 8.80039 2.22768 8.90701 2.08609 9.04177C1.9466 9.17448 1.8464 9.3375 1.7793 9.52493C1.71087 9.71596 1.6762 9.93268 1.66842 10.1691L1.65695 10.52H6.68146C7.27619 10.52 7.75674 10.6423 8.14329 10.8535C8.53143 11.0656 8.82358 11.3666 9.04046 11.7235C9.25127 12.0703 9.38864 12.4686 9.47302 12.8867C9.55687 13.3024 9.58864 13.7379 9.58864 14.1621V14.6822H3.37481C3.13157 14.6822 2.93882 14.6504 2.78576 14.593C2.62702 14.5335 2.51153 14.4464 2.42715 14.3381C2.3441 14.2314 2.29597 14.11 2.26974 13.9779C2.24456 13.8514 2.23942 13.7146 2.24192 13.5717L2.26855 12.3476H1.38352L1.34594 13.5354L1.32643 14.1254C1.32063 14.2851 1.31536 14.444 1.30758 14.6034C1.28385 15.047 1.24522 15.7705 1.72379 16.2086C1.86038 16.3336 1.98998 16.4286 2.12445 16.5005C2.25827 16.5718 2.39894 16.6211 2.55899 16.6551C2.72775 16.6911 2.91904 16.7108 3.14541 16.7214C3.37086 16.7321 3.63809 16.7338 3.9553 16.7338H9.58864V16.9362C9.58864 17.4791 9.4957 17.9647 9.30993 18.3876C9.1243 18.8103 8.84639 19.1696 8.47632 19.4606C8.11666 19.7432 7.67118 19.9594 7.13987 20.1038C6.62068 20.245 6.02003 20.3178 5.33802 20.3178H0V21.3302C0 21.4965 0.0283454 21.6415 0.0802899 21.7656C0.134212 21.8942 0.213711 22.0011 0.313645 22.0863C0.422016 22.1788 0.55636 22.2486 0.709821 22.2957C0.870137 22.3449 1.05168 22.3694 1.2472 22.3694H5.18601C6.07065 22.3694 6.89082 22.2421 7.62253 21.9934C8.34909 21.7465 8.98917 21.3798 9.51877 20.8995C10.0335 20.4328 10.4451 19.8575 10.7317 19.1792C11.0084 18.5243 11.1691 17.773 11.1939 16.9304L11.1997 16.7335H14.9242C15.4481 16.7335 16.8871 16.7335 17.9866 15.5943C18.4951 15.0674 18.7484 14.398 18.8739 13.6434C19.0009 12.8799 18.9979 12.0276 18.9946 11.1469L18.9931 10.7221L18.9936 8.90149H17.5692C17.502 8.90149 17.4431 8.91009 17.3938 8.9268C17.3479 8.94247 17.3094 8.96546 17.2797 8.99552C17.2495 9.02597 17.2259 9.06579 17.2097 9.11448C17.1928 9.16535 17.1839 9.22676 17.1839 9.29844V13.1593C17.1839 13.4079 17.1529 13.6259 17.089 13.8143C17.0236 14.0064 16.9239 14.1675 16.7874 14.2983C16.652 14.4282 16.4836 14.5247 16.28 14.5884C16.0803 14.6509 15.8476 14.6819 15.5797 14.6819H11.1969V14.4794C11.1969 13.505 11.0826 12.6681 10.8726 11.9574C10.6513 11.2083 10.3239 10.5997 9.91257 10.1181C9.47842 9.60984 8.94764 9.24064 8.34698 8.99514C7.70743 8.73371 6.98786 8.61244 6.22042 8.61244H3.5317L3.53196 8.6127ZM26.0881 20.3181C25.8032 20.3181 25.5009 20.311 25.2034 20.2658C24.9032 20.22 24.6114 20.1354 24.3538 19.9798C24.0896 19.8201 23.8663 19.5904 23.7137 19.2595C23.5638 18.9344 23.4827 18.5113 23.4996 17.9609C23.5202 17.2882 23.543 16.4619 23.5642 15.6546C23.5986 14.3479 23.6294 13.0924 23.6408 12.6114H22.4845C22.382 12.6114 22.2991 12.6216 22.2334 12.6411C22.1732 12.659 22.1274 12.6847 22.0942 12.7173C22.0614 12.7498 22.0374 12.7924 22.0209 12.8441C22.0029 12.901 21.9936 12.9684 21.9916 13.0447C21.9894 13.1308 21.9811 13.327 21.9688 13.5946C21.9563 13.8673 21.94 14.2093 21.9218 14.582C21.8983 15.0646 21.8714 15.604 21.8456 16.117C21.8131 16.7618 21.7823 17.365 21.7617 17.7621C21.7463 18.0595 21.7385 18.3655 21.7463 18.6684C21.7541 18.971 21.7771 19.2715 21.8233 19.5584C21.8684 19.8384 21.9356 20.1061 22.0323 20.3506C22.1278 20.5923 22.2524 20.8114 22.4129 20.9969C22.5931 21.2051 22.8063 21.4014 23.0498 21.5766C23.2805 21.7427 23.5392 21.8905 23.8235 22.0123C24.0916 22.1271 24.382 22.2186 24.6924 22.28C24.9854 22.338 25.2979 22.3698 25.6286 22.3698H28.719C29.021 22.3698 29.3509 22.34 29.6885 22.2804C30.0138 22.2231 30.3483 22.1376 30.6744 22.0246C30.9748 21.9204 31.2673 21.7925 31.5378 21.6411C31.7889 21.5007 32.0206 21.3401 32.2216 21.1598C32.6155 20.8062 32.9403 20.4676 33.2052 20.097C33.4693 19.7276 33.6746 19.3255 33.8305 18.8434C33.9895 18.352 34.0989 17.7761 34.1687 17.0675C34.2386 16.3574 34.2685 15.5109 34.2685 14.4798V5.00013H32.8991C32.8188 5.00013 32.7504 5.00976 32.6945 5.0289C32.6423 5.04676 32.5999 5.0731 32.5676 5.10753C32.5328 5.14465 32.5063 5.19373 32.4884 5.25423C32.4691 5.31911 32.4594 5.39773 32.4594 5.48971V16.7155C32.4594 17.3104 32.368 17.8229 32.1982 18.2595C32.0188 18.7211 31.7516 19.0974 31.4121 19.397C31.0561 19.7112 30.6233 19.9379 30.1307 20.0878C29.6126 20.2456 29.0285 20.3183 28.3988 20.3183H26.088L26.0881 20.3181Z" fill="#454852"/>
<path fill-rule="evenodd" clip-rule="evenodd" d="M65.1719 22.8271C65.8955 23.5517 66.8957 23.9999 68.0004 23.9999H84.0044C86.2123 23.9999 88.0021 22.21 88.0023 20.002C88.0023 15.824 85.8642 12.1441 82.6234 9.99512H78.0035L65.1719 22.8271Z" fill="#0A56FB"/>
<path fill-rule="evenodd" clip-rule="evenodd" d="M82.6239 9.99538L82.6234 9.99512H78.0033L65.1719 22.827L82.6239 9.99538Z" fill="#003FC7"/>
<path fill-rule="evenodd" clip-rule="evenodd" d="M79.4824 8.51369C77.9881 3.58783 73.4107 0 67.998 0C65.7899 0.000261819 64 1.79005 64 3.99797V20.0019C64 21.1051 64.4469 22.1038 65.1694 22.8272L79.4824 8.51369Z" fill="#2DE3B0"/>
<path fill-rule="evenodd" clip-rule="evenodd" d="M79.4848 8.51346C78.8866 6.54157 77.794 4.78451 76.3519 3.38574L65.1719 22.8268L79.4848 8.51333V8.51346Z" fill="#67FAD0"/>
</svg>
